<?xml version="1.0" encoding="utf-8"?>
<!-- Generator: Adobe Illustrator 23.0.6, SVG Export Plug-In . SVG Version: 6.00 Build 0)  -->
<svg version="1.1"
	 id="svg2" inkscape:export-filename="/home/wolfram/projekte/rba/rba2html/svg-graphics/RBA_scheme_biological_3.png" inkscape:export-xdpi="96" inkscape:export-ydpi="96" inkscape:version="0.92.2 (5c3e80d, 2017-08-06)" sodipodi:docname="RBA_scheme_biological_3.svg" xmlns:cc="http://creativecommons.org/ns#" xmlns:dc="http://purl.org/dc/elements/1.1/" xmlns:inkscape="http://www.inkscape.org/namespaces/inkscape" xmlns:rdf="http://www.w3.org/1999/02/22-rdf-syntax-ns#" xmlns:sodipodi="http://sodipodi.sourceforge.net/DTD/sodipodi-0.dtd" xmlns:svg="http://www.w3.org/2000/svg"
	 xmlns="http://www.w3.org/2000/svg" xmlns:xlink="http://www.w3.org/1999/xlink" x="0px" y="0px" viewBox="0 0 1200 498"
	 style="enable-background:new 0 0 1200 498;" xml:space="preserve">
<style type="text/css">
	.st0{fill:none;stroke:#000000;stroke-width:9.4485;stroke-miterlimit:10;}
	.st1{fill-rule:evenodd;clip-rule:evenodd;fill:#FFE8AA;}
	.st2{fill:none;stroke:#000000;stroke-width:4.7242;stroke-miterlimit:10;}
	.st3{fill-rule:evenodd;clip-rule:evenodd;fill:#DDCCFF;}
	.st4{fill-rule:evenodd;clip-rule:evenodd;fill:#FFBFBF;}
	.st5{clip-path:url(#SVGID_2_);}
	.st6{fill:none;stroke:#D100D1;stroke-width:18.897;stroke-miterlimit:10;}
	.st7{fill-rule:evenodd;clip-rule:evenodd;fill:#D100D1;}
	.st8{clip-path:url(#SVGID_4_);}
	.st9{clip-path:url(#SVGID_6_);}
	.st10{clip-path:url(#SVGID_8_);}
	.st11{fill-rule:evenodd;clip-rule:evenodd;fill:#DDAA66;}
	.st12{fill-rule:evenodd;clip-rule:evenodd;fill:#FFFFFF;}
	.st13{clip-path:url(#SVGID_10_);}
	.st14{clip-path:url(#SVGID_12_);}
	.st15{clip-path:url(#SVGID_14_);}
	.st16{clip-path:url(#SVGID_16_);}
	.st17{font-family:'Helvetica';}
	.st18{font-size:15.9995px;}
	.st19{font-size:21.3327px;}
	.st20{fill:#886644;}
</style>
<sodipodi:namedview  bordercolor="#666666" borderopacity="1" gridtolerance="10" guidetolerance="10" id="namedview4" inkscape:current-layer="g10" inkscape:cx="218.67699" inkscape:cy="535.17527" inkscape:pageopacity="1" inkscape:pageshadow="2" inkscape:window-height="1382" inkscape:window-maximized="1" inkscape:window-width="2560" inkscape:window-x="0" inkscape:window-y="34" inkscape:zoom="1.3078651" objecttolerance="10" pagecolor="#ffffff" showgrid="false" showguides="false">
	</sodipodi:namedview>
<g id="g10" transform="matrix(1.3333333,0,0,-1.3333333,0,1000)" inkscape:groupmode="layer" inkscape:label="ink_ext_XXXXXX">
	<g id="g12" transform="matrix(0.1,0,0,0.1,0,405)">
		<path id="path14" inkscape:connector-curvature="0" class="st0" d="M2249.2,3422.3L2249.2,3422.3
			c-782.7,0-1417.3-634.5-1417.3-1417.3v-141.7c0-782.7,634.5-1417.3,1417.3-1417.3h5215.6c782.7,0,1417.3,634.5,1417.3,1417.3V2005
			c0,782.7-634.5,1417.3-1417.3,1417.3H2249.2z"/>
		<path id="path16" inkscape:connector-curvature="0" class="st1" d="M4951.5,2827L4951.5,2827c-36.5,0-66.1-29.6-66.1-66.1V1220.8
			c0-36.5,29.6-66.1,66.1-66.1h2078.7c36.5,0,66.1,29.6,66.1,66.1v1540.1c0,36.5-29.6,66.1-66.1,66.1"/>
		<path id="path18" inkscape:connector-curvature="0" class="st2" d="M4951.5,2827L4951.5,2827c-36.5,0-66.1-29.6-66.1-66.1V1220.8
			c0-36.5,29.6-66.1,66.1-66.1h2078.7c36.5,0,66.1,29.6,66.1,66.1v1540.1c0,36.5-29.6,66.1-66.1,66.1L4951.5,2827z"/>
		<path id="path20" inkscape:connector-curvature="0" class="st1" d="M1408.3,2883.7L1408.3,2883.7c-36.5,0-66.1-29.6-66.1-66.1
			V1220.8c0-36.5,29.6-66.1,66.1-66.1h2560.5c36.5,0,66.1,29.6,66.1,66.1v1596.8c0,36.5-29.6,66.1-66.1,66.1"/>
		<path id="path22" inkscape:connector-curvature="0" class="st2" d="M1408.3,2883.7L1408.3,2883.7c-36.5,0-66.1-29.6-66.1-66.1
			V1220.8c0-36.5,29.6-66.1,66.1-66.1h2560.5c36.5,0,66.1,29.6,66.1,66.1v1596.8c0,36.5-29.6,66.1-66.1,66.1H1408.3z"/>
		<path id="path24" inkscape:connector-curvature="0" class="st3" d="M7559.2,2571.9L7559.2,2571.9c-36.5,0-66.1-29.6-66.1-66.1
			v-944.9c0-36.5,29.6-66.1,66.1-66.1h434.6c36.5,0,66.1,29.6,66.1,66.1v944.9c0,36.5-29.6,66.1-66.1,66.1"/>
		<path id="path26" inkscape:connector-curvature="0" class="st2" d="M7559.2,2571.9L7559.2,2571.9c-36.5,0-66.1-29.6-66.1-66.1
			v-944.9c0-36.5,29.6-66.1,66.1-66.1h434.6c36.5,0,66.1,29.6,66.1,66.1v944.9c0,36.5-29.6,66.1-66.1,66.1H7559.2z"/>
		<path id="path28" inkscape:connector-curvature="0" class="st4" d="M548.5,2146.7c0-78.3-63.5-141.7-141.7-141.7
			c-78.3,0-141.7,63.4-141.7,141.7c0,78.3,63.5,141.7,141.7,141.7C485,2288.5,548.5,2225,548.5,2146.7"/>
		<path id="path30" inkscape:connector-curvature="0" class="st2" d="M548.5,2146.7c0-78.3-63.5-141.7-141.7-141.7
			c-78.3,0-141.7,63.4-141.7,141.7c0,78.3,63.5,141.7,141.7,141.7C485,2288.5,548.5,2225,548.5,2146.7z"/>
		<path id="path32" inkscape:connector-curvature="0" class="st4" d="M1965.7,2146.7c0-78.3-63.4-141.7-141.7-141.7
			c-78.3,0-141.7,63.4-141.7,141.7c0,78.3,63.5,141.7,141.7,141.7C1902.3,2288.5,1965.7,2225,1965.7,2146.7"/>
		<path id="path34" inkscape:connector-curvature="0" class="st2" d="M1965.7,2146.7c0-78.3-63.4-141.7-141.7-141.7
			c-78.3,0-141.7,63.4-141.7,141.7c0,78.3,63.5,141.7,141.7,141.7C1902.3,2288.5,1965.7,2225,1965.7,2146.7z"/>
		<path id="path36" inkscape:connector-curvature="0" class="st4" d="M3609.8,2177.6c0-78.3-63.4-141.7-141.7-141.7
			c-78.3,0-141.7,63.5-141.7,141.7s63.5,141.7,141.7,141.7C3546.3,2319.3,3609.8,2255.9,3609.8,2177.6"/>
		<path id="path38" inkscape:connector-curvature="0" class="st2" d="M3609.8,2177.6c0-78.3-63.4-141.7-141.7-141.7
			c-78.3,0-141.7,63.5-141.7,141.7s63.5,141.7,141.7,141.7C3546.3,2319.3,3609.8,2255.9,3609.8,2177.6z"/>
		<path id="path40" inkscape:connector-curvature="0" class="st4" d="M5711.1,2193.3c0-78.3-63.5-141.7-141.7-141.7
			c-78.3,0-141.7,63.4-141.7,141.7c0,78.3,63.5,141.7,141.7,141.7C5647.7,2335.1,5711.1,2271.6,5711.1,2193.3"/>
		<path id="path42" inkscape:connector-curvature="0" class="st2" d="M5711.1,2193.3c0-78.3-63.5-141.7-141.7-141.7
			c-78.3,0-141.7,63.4-141.7,141.7c0,78.3,63.5,141.7,141.7,141.7C5647.7,2335.1,5711.1,2271.6,5711.1,2193.3z"/>
		<path id="path44" inkscape:connector-curvature="0" class="st4" d="M4573.5,2175.1c0-78.3-63.5-141.7-141.7-141.7
			s-141.7,63.5-141.7,141.7s63.5,141.7,141.7,141.7S4573.5,2253.3,4573.5,2175.1"/>
		<path id="path46" inkscape:connector-curvature="0" class="st2" d="M4573.5,2175.1c0-78.3-63.5-141.7-141.7-141.7
			s-141.7,63.5-141.7,141.7s63.5,141.7,141.7,141.7S4573.5,2253.3,4573.5,2175.1z"/>
		<g id="g48">
			<g>
				<defs>
					<path id="SVGID_1_" d="M0,3440V0h8900v3440H0z M1537.4,2137.3h154.3v75.6h-154.3l0,0l113.4-37.8L1537.4,2137.3z"/>
				</defs>
				<clipPath id="SVGID_2_">
					<use xlink:href="#SVGID_1_"  style="overflow:visible;"/>
				</clipPath>
				<g id="g50" class="st5">
					<path id="path56" inkscape:connector-curvature="0" class="st6" d="M576.8,2175.1h1105.5"/>
				</g>
			</g>
		</g>
		<path id="path58" inkscape:connector-curvature="0" class="st7" d="M1537.4,2137.3l113.4,37.8l-113.4,37.8V2137.3"/>
		<path id="path60" inkscape:connector-curvature="0" class="st6" d="M1537.4,2137.3l113.4,37.8l-113.4,37.8V2137.3z"/>
		<g id="g62">
			<g>
				<defs>
					<path id="SVGID_3_" d="M0,3440V0h8900v3440H0z M3096.4,2137.3h154.3v75.6h-154.3l0,0l113.4-37.8L3096.4,2137.3z"/>
				</defs>
				<clipPath id="SVGID_4_">
					<use xlink:href="#SVGID_3_"  style="overflow:visible;"/>
				</clipPath>
				<g id="g64" class="st8">
					<path id="path70" inkscape:connector-curvature="0" class="st6" d="M1994.1,2175.1h1247.2"/>
				</g>
			</g>
		</g>
		<path id="path72" inkscape:connector-curvature="0" class="st7" d="M3096.4,2137.3l113.4,37.8l-113.4,37.8V2137.3"/>
		<path id="path74" inkscape:connector-curvature="0" class="st6" d="M3096.4,2137.3l113.4,37.8l-113.4,37.8V2137.3z"/>
		<g id="g76">
			<g>
				<defs>
					<path id="SVGID_5_" d="M0,3440V0h8900v3440H0z M6775,165.7V11.4h75.6v154.3l0,0l-37.8-113.4L6775,165.7z"/>
				</defs>
				<clipPath id="SVGID_6_">
					<use xlink:href="#SVGID_5_"  style="overflow:visible;"/>
				</clipPath>
				<g id="g78" class="st9">
					<path id="path84" inkscape:connector-curvature="0" class="st6" d="M6812.8,502.7V20.8"/>
				</g>
			</g>
		</g>
		<path id="path86" inkscape:connector-curvature="0" class="st7" d="M6775,165.7l37.8-113.4l37.8,113.4H6775"/>
		<path id="path88" inkscape:connector-curvature="0" class="st6" d="M6775,165.7l37.8-113.4l37.8,113.4H6775z"/>
		<g id="g90">
			<g>
				<defs>
					<path id="SVGID_7_" d="M0,3440V0h8900v3440H0z M6746.7,1186.1v-154.3h75.6v154.3l0,0l-37.8-113.4L6746.7,1186.1z"/>
				</defs>
				<clipPath id="SVGID_8_">
					<use xlink:href="#SVGID_7_"  style="overflow:visible;"/>
				</clipPath>
				<g id="g92" class="st10">
					<path id="path98" inkscape:connector-curvature="0" class="st6" d="M5764,2203.4h765.3l255.1-198.4v-963.8"/>
				</g>
			</g>
		</g>
		<path id="path100" inkscape:connector-curvature="0" class="st7" d="M6746.7,1186.1l37.8-113.4l37.8,113.4H6746.7"/>
		<path id="path102" inkscape:connector-curvature="0" class="st6" d="M6746.7,1186.1l37.8-113.4l37.8,113.4H6746.7z"/>
		<path id="path104" inkscape:connector-curvature="0" class="st11" d="M2646,1551.5l170.1,170.1l255.1-85l28.4-113.4l-226.8-141.7"
			/>
		<path id="path106" inkscape:connector-curvature="0" class="st2" d="M2646,1551.5l170.1,170.1l255.1-85l28.4-113.4l-226.8-141.7
			L2646,1551.5z"/>
		<path id="path108" inkscape:connector-curvature="0" class="st11" d="M5849.1,1551.5l226.8,170.1l255.1-113.4l-28.4-141.7
			l-255.1-85"/>
		<path id="path110" inkscape:connector-curvature="0" class="st2" d="M5849.1,1551.5l226.8,170.1l255.1-113.4l-28.4-141.7
			l-255.1-85L5849.1,1551.5z"/>
		<path id="path112" inkscape:connector-curvature="0" class="st11" d="M6529.4,814.5l226.8,170.1l311.8-113.4l56.7-170.1
			l-340.1-113.4"/>
		<path id="path114" inkscape:connector-curvature="0" class="st2" d="M6529.4,814.5l226.8,170.1l311.8-113.4l56.7-170.1
			l-340.1-113.4L6529.4,814.5z"/>
		<path id="path116" inkscape:connector-curvature="0" class="st0" d="M6444.3,927.9h-396.8v425.2"/>
		<path id="path118" inkscape:connector-curvature="0" class="st12" d="M6326.5,927.9l113.4-56.7v113.4L6326.5,927.9"/>
		<path id="path120" inkscape:connector-curvature="0" class="st0" d="M6326.5,927.9l113.4-56.7v113.4L6326.5,927.9z"/>
		<path id="path122" inkscape:connector-curvature="0" class="st0" d="M7634.8,1494.8V842.8h-453.5"/>
		<path id="path124" inkscape:connector-curvature="0" class="st12" d="M7299.7,842.8l-113.4,56.7V786.1L7299.7,842.8"/>
		<path id="path126" inkscape:connector-curvature="0" class="st0" d="M7299.7,842.8l-113.4,56.7V786.1L7299.7,842.8z"/>
		<path id="path128" inkscape:connector-curvature="0" class="st0" d="M6444.3,814.5H2872.8v538.6"/>
		<path id="path130" inkscape:connector-curvature="0" class="st12" d="M6326.5,814.5l113.4-56.7v113.4L6326.5,814.5"/>
		<path id="path132" inkscape:connector-curvature="0" class="st0" d="M6326.5,814.5l113.4-56.7v113.4L6326.5,814.5z"/>
		<g id="g134">
			<g>
				<defs>
					<path id="SVGID_9_" d="M0,3440V0h8900v3440H0z M2905.5,2057.3v61.1h-122.8v-61.1l0,0H2905.5z"/>
				</defs>
				<clipPath id="SVGID_10_">
					<use xlink:href="#SVGID_9_"  style="overflow:visible;"/>
				</clipPath>
				<g id="g136" class="st13">
					<path id="path142" inkscape:connector-curvature="0" class="st0" d="M2844.4,1721.5v396.8"/>
				</g>
			</g>
		</g>
		<path id="path144" inkscape:connector-curvature="0" class="st12" d="M2901.1,2057.3l-0.6,8.8l-2.5,9.4l-3.1,8.2l-5,7.6l-6.3,6.9
			l-6.9,5.7l-7.6,4.4l-8.8,3.1l-8.8,1.9l-9.4,0.6l-8.8-1.3l-8.8-2.5l-8.2-3.8l-7.6-5l-6.3-6.3l-5.7-7.6l-4.4-8.2l-2.5-8.2l-1.9-9.4
			v-8.8l1.9-9.4l2.5-8.2l4.4-8.2l5.7-7.6l6.3-6.3l7.6-5l8.2-3.8l8.8-2.5l8.8-1.3l9.4,0.6l8.8,1.9l8.8,3.2l7.6,4.4l6.9,5.7l6.3,6.9
			l5,7.6l3.1,8.2l2.5,9.4L2901.1,2057.3"/>
		<path id="path146" inkscape:connector-curvature="0" class="st0" d="M2901.1,2057.3l-0.6,8.8l-2.5,9.4l-3.1,8.2l-5,7.6l-6.3,6.9
			l-6.9,5.7l-7.6,4.4l-8.8,3.1l-8.8,1.9l-9.4,0.6l-8.8-1.3l-8.8-2.5l-8.2-3.8l-7.6-5l-6.3-6.3l-5.7-7.6l-4.4-8.2l-2.5-8.2l-1.9-9.4
			v-8.8l1.9-9.4l2.5-8.2l4.4-8.2l5.7-7.6l6.3-6.3l7.6-5l8.2-3.8l8.8-2.5l8.8-1.3l9.4,0.6l8.8,1.9l8.8,3.2l7.6,4.4l6.9,5.7l6.3,6.9
			l5,7.6l3.1,8.2l2.5,9.4L2901.1,2057.3z"/>
		<g id="g148">
			<g>
				<defs>
					<path id="SVGID_11_" d="M0,3440V0h8900v3440H0z M6108.6,2085.6v61.1h-122.8v-61.1l0,0H6108.6z"/>
				</defs>
				<clipPath id="SVGID_12_">
					<use xlink:href="#SVGID_11_"  style="overflow:visible;"/>
				</clipPath>
				<g id="g150" class="st14">
					<path id="path156" inkscape:connector-curvature="0" class="st0" d="M6047.5,1749.9v396.8"/>
				</g>
			</g>
		</g>
		<path id="path158" inkscape:connector-curvature="0" class="st12" d="M6104.2,2085.6l-0.6,8.8l-2.5,9.4l-3.1,8.2l-5,7.6l-6.3,6.9
			l-6.9,5.7l-7.6,4.4l-8.8,3.1l-8.8,1.9l-9.5,0.6l-8.8-1.3l-8.8-2.5l-8.2-3.8l-7.6-5l-6.3-6.3l-5.7-7.6l-4.4-8.2l-2.5-8.2l-1.9-9.4
			v-8.8l1.9-9.4l2.5-8.2l4.4-8.2l5.7-7.6l6.3-6.3l7.6-5l8.2-3.8l8.8-2.5l8.8-1.3l9.5,0.6l8.8,1.9l8.8,3.2l7.6,4.4l6.9,5.7l6.3,6.9
			l5,7.6l3.1,8.2l2.5,9.4L6104.2,2085.6"/>
		<path id="path160" inkscape:connector-curvature="0" class="st0" d="M6104.2,2085.6l-0.6,8.8l-2.5,9.4l-3.1,8.2l-5,7.6l-6.3,6.9
			l-6.9,5.7l-7.6,4.4l-8.8,3.1l-8.8,1.9l-9.5,0.6l-8.8-1.3l-8.8-2.5l-8.2-3.8l-7.6-5l-6.3-6.3l-5.7-7.6l-4.4-8.2l-2.5-8.2l-1.9-9.4
			v-8.8l1.9-9.4l2.5-8.2l4.4-8.2l5.7-7.6l6.3-6.3l7.6-5l8.2-3.8l8.8-2.5l8.8-1.3l9.5,0.6l8.8,1.9l8.8,3.2l7.6,4.4l6.9,5.7l6.3,6.9
			l5,7.6l3.1,8.2l2.5,9.4L6104.2,2085.6z"/>
		<g id="g162">
			<g>
				<defs>
					<path id="SVGID_13_" d="M0,3440V0h8900v3440H0z M5279,2137.3h154.3v75.6H5279l0,0l113.4-37.8L5279,2137.3z"/>
				</defs>
				<clipPath id="SVGID_14_">
					<use xlink:href="#SVGID_13_"  style="overflow:visible;"/>
				</clipPath>
				<g id="g164" class="st15">
					<path id="path170" inkscape:connector-curvature="0" class="st6" d="M4630.2,2175.1h793.7"/>
				</g>
			</g>
		</g>
		<path id="path172" inkscape:connector-curvature="0" class="st7" d="M5279,2137.3l113.4,37.8l-113.4,37.8V2137.3"/>
		<path id="path174" inkscape:connector-curvature="0" class="st6" d="M5279,2137.3l113.4,37.8l-113.4,37.8V2137.3z"/>
		<g id="g176">
			<g>
				<defs>
					<path id="SVGID_15_" d="M0,3440V0h8900v3440H0z M4116.8,2137.3h154.3v75.6h-154.3l0,0l113.4-37.8L4116.8,2137.3z"/>
				</defs>
				<clipPath id="SVGID_16_">
					<use xlink:href="#SVGID_15_"  style="overflow:visible;"/>
				</clipPath>
				<g id="g178" class="st16">
					<path id="path184" inkscape:connector-curvature="0" class="st6" d="M3666.5,2175.1h595.3"/>
				</g>
			</g>
		</g>
		<path id="path186" inkscape:connector-curvature="0" class="st7" d="M4116.8,2137.3l113.4,37.8l-113.4,37.8V2137.3"/>
		<path id="path188" inkscape:connector-curvature="0" class="st6" d="M4116.8,2137.3l113.4,37.8l-113.4,37.8V2137.3z"/>
		<g id="g190" transform="scale(10)">
			<text transform="matrix(0.75 0 0 -0.75 0.9891 237.3494)" class="st17 st18">(</text>
			<text transform="matrix(0.75 0 0 -0.75 4.9849 237.3494)" class="st17 st18">e</text>
			<text transform="matrix(0.75 0 0 -0.75 11.6569 237.3494)" class="st17 st18">x</text>
			<text transform="matrix(0.75 0 0 -0.75 17.6565 237.3494)" class="st17 st18">t</text>
			<text transform="matrix(0.75 0 0 -0.75 20.9927 237.3494)" class="st17 st18">r</text>
			<text transform="matrix(0.75 0 0 -0.75 24.9884 237.3494)" class="st17 st18">a</text>
			<text transform="matrix(0.75 0 0 -0.75 31.6604 237.3494)" class="st17 st18">c</text>
			<text transform="matrix(0.75 0 0 -0.75 37.66 237.3494)" class="st17 st18">e</text>
			<text transform="matrix(0.75 0 0 -0.75 44.3317 237.3494)" class="st17 st18">l</text>
			<text transform="matrix(0.75 0 0 -0.75 46.9959 237.3494)" class="st17 st18">l</text>
			<text transform="matrix(0.75 0 0 -0.75 49.6597 237.3494)" class="st17 st18">u</text>
			<text transform="matrix(0.75 0 0 -0.75 56.3313 237.3494)" class="st17 st18">l</text>
			<text transform="matrix(0.75 0 0 -0.75 58.9951 237.3494)" class="st17 st18">a</text>
			<text transform="matrix(0.75 0 0 -0.75 65.6668 237.3494)" class="st17 st18">r</text>
			<text transform="matrix(0.75 0 0 -0.75 69.6629 237.3494)" class="st17 st18">)</text>
			<text transform="matrix(0.75 0 0 -0.75 171.0623 237.3494)" class="st17 st18">(</text>
			<text transform="matrix(0.75 0 0 -0.75 175.0584 237.3494)" class="st17 st18">i</text>
			<text transform="matrix(0.75 0 0 -0.75 177.7222 237.3494)" class="st17 st18">n</text>
			<text transform="matrix(0.75 0 0 -0.75 184.3938 237.3494)" class="st17 st18">t</text>
			<text transform="matrix(0.75 0 0 -0.75 187.7297 237.3494)" class="st17 st18">e</text>
			<text transform="matrix(0.75 0 0 -0.75 194.4017 237.3494)" class="st17 st18">r</text>
			<text transform="matrix(0.75 0 0 -0.75 198.3974 237.3494)" class="st17 st18">n</text>
			<text transform="matrix(0.75 0 0 -0.75 205.0694 237.3494)" class="st17 st18">a</text>
			<text transform="matrix(0.75 0 0 -0.75 211.741 237.3494)" class="st17 st18">l</text>
			<text transform="matrix(0.75 0 0 -0.75 214.4048 237.3494)" class="st17 st18">)</text>
			<text transform="matrix(0.75 0 0 -0.75 627.425 10.585)" class="st17 st18">D</text>
			<text transform="matrix(0.75 0 0 -0.75 636.0888 10.585)" class="st17 st18">i</text>
			<text transform="matrix(0.75 0 0 -0.75 638.7526 10.585)" class="st17 st18">l</text>
			<text transform="matrix(0.75 0 0 -0.75 641.4172 10.585)" class="st17 st18">u</text>
			<text transform="matrix(0.75 0 0 -0.75 648.0888 10.585)" class="st17 st18">t</text>
			<text transform="matrix(0.75 0 0 -0.75 651.4243 10.585)" class="st17 st18">i</text>
			<text transform="matrix(0.75 0 0 -0.75 654.0881 10.585)" class="st17 st18">o</text>
			<text transform="matrix(0.75 0 0 -0.75 660.7604 10.585)" class="st17 st18">n</text>
			<text transform="matrix(0.75 0 0 -0.75 12.3281 254.3563)" class="st17 st18">M</text>
			<text transform="matrix(0.75 0 0 -0.75 22.3239 254.3563)" class="st17 st18">e</text>
			<text transform="matrix(0.75 0 0 -0.75 28.9959 254.3563)" class="st17 st18">t</text>
			<text transform="matrix(0.75 0 0 -0.75 32.3313 254.3563)" class="st17 st18">a</text>
			<text transform="matrix(0.75 0 0 -0.75 39.0033 254.3563)" class="st17 st18">b</text>
			<text transform="matrix(0.75 0 0 -0.75 45.6753 254.3563)" class="st17 st18">o</text>
			<text transform="matrix(0.75 0 0 -0.75 52.3469 254.3563)" class="st17 st18">l</text>
			<text transform="matrix(0.75 0 0 -0.75 55.0108 254.3563)" class="st17 st18">i</text>
			<text transform="matrix(0.75 0 0 -0.75 57.6746 254.3563)" class="st17 st18">t</text>
			<text transform="matrix(0.75 0 0 -0.75 61.0108 254.3563)" class="st17 st18">e</text>
			<text transform="matrix(0.75 0 0 -0.75 67.6824 254.3563)" class="st17 st18">s</text>
			<text transform="matrix(0.75 0 0 -0.75 165.3941 251.5214)" class="st17 st18">M</text>
			<text transform="matrix(0.75 0 0 -0.75 175.3898 251.5214)" class="st17 st18">e</text>
			<text transform="matrix(0.75 0 0 -0.75 182.0618 251.5214)" class="st17 st18">t</text>
			<text transform="matrix(0.75 0 0 -0.75 185.3976 251.5214)" class="st17 st18">a</text>
			<text transform="matrix(0.75 0 0 -0.75 192.0693 251.5214)" class="st17 st18">b</text>
			<text transform="matrix(0.75 0 0 -0.75 198.7413 251.5214)" class="st17 st18">o</text>
			<text transform="matrix(0.75 0 0 -0.75 205.4129 251.5214)" class="st17 st18">l</text>
			<text transform="matrix(0.75 0 0 -0.75 208.0767 251.5214)" class="st17 st18">i</text>
			<text transform="matrix(0.75 0 0 -0.75 210.7405 251.5214)" class="st17 st18">t</text>
			<text transform="matrix(0.75 0 0 -0.75 214.0767 251.5214)" class="st17 st18">e</text>
			<text transform="matrix(0.75 0 0 -0.75 220.7484 251.5214)" class="st17 st18">s</text>
			<text transform="matrix(0.75 0 0 -0.75 213.5816 149.4775)" class="st17 st18">E</text>
			<text transform="matrix(0.75 0 0 -0.75 221.5855 149.4775)" class="st17 st18">n</text>
			<text transform="matrix(0.75 0 0 -0.75 228.2571 149.4775)" class="st17 st18">z</text>
			<text transform="matrix(0.75 0 0 -0.75 234.2571 149.4775)" class="st17 st18">y</text>
			<text transform="matrix(0.75 0 0 -0.75 240.2564 149.4775)" class="st17 st18">m</text>
			<text transform="matrix(0.75 0 0 -0.75 250.2525 149.4775)" class="st17 st18">e</text>
			<text transform="matrix(0.75 0 0 -0.75 256.9241 149.4775)" class="st17 st18">s</text>
			<text transform="matrix(0.75 0 0 -0.75 698.2897 95.6214)" class="st17 st18">P</text>
			<text transform="matrix(0.75 0 0 -0.75 706.2936 95.6214)" class="st17 st18">r</text>
			<text transform="matrix(0.75 0 0 -0.75 710.2897 95.6214)" class="st17 st18">o</text>
			<text transform="matrix(0.75 0 0 -0.75 716.9614 95.6214)" class="st17 st18">t</text>
			<text transform="matrix(0.75 0 0 -0.75 720.2968 95.6214)" class="st17 st18">e</text>
			<text transform="matrix(0.75 0 0 -0.75 726.9692 95.6214)" class="st17 st18">i</text>
			<text transform="matrix(0.75 0 0 -0.75 729.633 95.6214)" class="st17 st18">n</text>
			<text transform="matrix(0.75 0 0 -0.75 736.3046 95.6214)" class="st17 st18">s</text>
			<text transform="matrix(0.75 0 0 -0.75 740.8083 268.5279)" class="st17 st18">C</text>
			<text transform="matrix(0.75 0 0 -0.75 749.4721 268.5279)" class="st17 st18">o</text>
			<text transform="matrix(0.75 0 0 -0.75 756.1437 268.5279)" class="st17 st18">m</text>
			<text transform="matrix(0.75 0 0 -0.75 766.1391 268.5279)" class="st17 st18">p</text>
			<text transform="matrix(0.75 0 0 -0.75 772.8115 268.5279)" class="st17 st18">a</text>
			<text transform="matrix(0.75 0 0 -0.75 779.4831 268.5279)" class="st17 st18">r</text>
			<text transform="matrix(0.75 0 0 -0.75 783.4792 268.5279)" class="st17 st18">t</text>
			<text transform="matrix(0.75 0 0 -0.75 786.8146 268.5279)" class="st17 st18">m</text>
			<text transform="matrix(0.75 0 0 -0.75 796.8107 268.5279)" class="st17 st18">e</text>
			<text transform="matrix(0.75 0 0 -0.75 803.4824 268.5279)" class="st17 st18">n</text>
			<text transform="matrix(0.75 0 0 -0.75 810.154 268.5279)" class="st17 st18">t</text>
			<text transform="matrix(0.75 0 0 -0.75 813.4894 268.5279)" class="st17 st18">s</text>
			<text transform="matrix(0.75 0 0 -0.75 531.0514 160.815)" class="st17 st18">P</text>
			<text transform="matrix(0.75 0 0 -0.75 539.0546 160.815)" class="st17 st18">r</text>
			<text transform="matrix(0.75 0 0 -0.75 543.0507 160.815)" class="st17 st18">o</text>
			<text transform="matrix(0.75 0 0 -0.75 549.7223 160.815)" class="st17 st18">c</text>
			<text transform="matrix(0.75 0 0 -0.75 555.7223 160.815)" class="st17 st18">e</text>
			<text transform="matrix(0.75 0 0 -0.75 562.3939 160.815)" class="st17 st18">s</text>
			<text transform="matrix(0.75 0 0 -0.75 568.3939 160.815)" class="st17 st18">s</text>
			<text transform="matrix(0.75 0 0 -0.75 525.3817 146.6426)" class="st17 st18">M</text>
			<text transform="matrix(0.75 0 0 -0.75 535.3778 146.6426)" class="st17 st18">a</text>
			<text transform="matrix(0.75 0 0 -0.75 542.0494 146.6426)" class="st17 st18">c</text>
			<text transform="matrix(0.75 0 0 -0.75 548.0494 146.6426)" class="st17 st18">h</text>
			<text transform="matrix(0.75 0 0 -0.75 554.7211 146.6426)" class="st17 st18">i</text>
			<text transform="matrix(0.75 0 0 -0.75 557.3849 146.6426)" class="st17 st18">n</text>
			<text transform="matrix(0.75 0 0 -0.75 564.0565 146.6426)" class="st17 st18">e</text>
			<text transform="matrix(0.75 0 0 -0.75 570.7281 146.6426)" class="st17 st18">r</text>
			<text transform="matrix(0.75 0 0 -0.75 574.7242 146.6426)" class="st17 st18">y</text>
			<text transform="matrix(0.75 0 0 -0.75 497.037 294.0385)" class="st17 st19">M</text>
			<text transform="matrix(0.75 0 0 -0.75 510.3641 294.0385)" class="st17 st19">a</text>
			<text transform="matrix(0.75 0 0 -0.75 519.2601 294.0385)" class="st17 st19">c</text>
			<text transform="matrix(0.75 0 0 -0.75 527.2596 294.0385)" class="st17 st19">r</text>
			<text transform="matrix(0.75 0 0 -0.75 532.588 294.0385)" class="st17 st19">o</text>
			<text transform="matrix(0.75 0 0 -0.75 541.4833 294.0385)" class="st17 st19">m</text>
			<text transform="matrix(0.75 0 0 -0.75 554.8112 294.0385)" class="st17 st19">o</text>
			<text transform="matrix(0.75 0 0 -0.75 563.7064 294.0385)" class="st17 st19">l</text>
			<text transform="matrix(0.75 0 0 -0.75 567.2587 294.0385)" class="st17 st19">e</text>
			<text transform="matrix(0.75 0 0 -0.75 576.1539 294.0385)" class="st17 st19">c</text>
			<text transform="matrix(0.75 0 0 -0.75 584.1542 294.0385)" class="st17 st19">u</text>
			<text transform="matrix(0.75 0 0 -0.75 593.0494 294.0385)" class="st17 st19">l</text>
			<text transform="matrix(0.75 0 0 -0.75 596.6017 294.0385)" class="st17 st19">e</text>
			<text transform="matrix(0.75 0 0 -0.75 605.4977 294.0385)" class="st17 st19"> </text>
			<text transform="matrix(0.75 0 0 -0.75 609.9449 294.0385)" class="st17 st19">p</text>
			<text transform="matrix(0.75 0 0 -0.75 618.841 294.0385)" class="st17 st19">r</text>
			<text transform="matrix(0.75 0 0 -0.75 624.1686 294.0385)" class="st17 st19">o</text>
			<text transform="matrix(0.75 0 0 -0.75 633.0646 294.0385)" class="st17 st19">d</text>
			<text transform="matrix(0.75 0 0 -0.75 641.9606 294.0385)" class="st17 st19">u</text>
			<text transform="matrix(0.75 0 0 -0.75 650.8559 294.0385)" class="st17 st19">c</text>
			<text transform="matrix(0.75 0 0 -0.75 658.8561 294.0385)" class="st17 st19">t</text>
			<text transform="matrix(0.75 0 0 -0.75 663.3034 294.0385)" class="st17 st19">i</text>
			<text transform="matrix(0.75 0 0 -0.75 666.8557 294.0385)" class="st17 st19">o</text>
			<text transform="matrix(0.75 0 0 -0.75 675.7509 294.0385)" class="st17 st19">n</text>
			<text transform="matrix(0.75 0 0 -0.75 230.5884 296.8734)" class="st17 st19">M</text>
			<text transform="matrix(0.75 0 0 -0.75 243.9163 296.8734)" class="st17 st19">e</text>
			<text transform="matrix(0.75 0 0 -0.75 252.8116 296.8734)" class="st17 st19">t</text>
			<text transform="matrix(0.75 0 0 -0.75 257.2596 296.8734)" class="st17 st19">a</text>
			<text transform="matrix(0.75 0 0 -0.75 266.1556 296.8734)" class="st17 st19">b</text>
			<text transform="matrix(0.75 0 0 -0.75 275.0516 296.8734)" class="st17 st19">o</text>
			<text transform="matrix(0.75 0 0 -0.75 283.9468 296.8734)" class="st17 st19">l</text>
			<text transform="matrix(0.75 0 0 -0.75 287.4991 296.8734)" class="st17 st19">i</text>
			<text transform="matrix(0.75 0 0 -0.75 291.0506 296.8734)" class="st17 st19">s</text>
			<text transform="matrix(0.75 0 0 -0.75 299.0508 296.8734)" class="st17 st19">m</text>
		</g>
		<g id="g218" transform="scale(10)">
			<text transform="matrix(0.75 0 0 -0.75 290.1131 186.3275)" class="st20 st17 st18">C</text>
			<text transform="matrix(0.75 0 0 -0.75 298.7769 186.3275)" class="st20 st17 st18">a</text>
			<text transform="matrix(0.75 0 0 -0.75 305.4486 186.3275)" class="st20 st17 st18">t</text>
			<text transform="matrix(0.75 0 0 -0.75 308.7848 186.3275)" class="st20 st17 st18">a</text>
			<text transform="matrix(0.75 0 0 -0.75 315.4564 186.3275)" class="st20 st17 st18">l</text>
			<text transform="matrix(0.75 0 0 -0.75 318.1202 186.3275)" class="st20 st17 st18">y</text>
			<text transform="matrix(0.75 0 0 -0.75 324.1202 186.3275)" class="st20 st17 st18">s</text>
			<text transform="matrix(0.75 0 0 -0.75 330.1202 186.3275)" class="st20 st17 st18">i</text>
			<text transform="matrix(0.75 0 0 -0.75 332.784 186.3275)" class="st20 st17 st18">s</text>
			<text transform="matrix(0.75 0 0 -0.75 610.4174 189.1619)" class="st20 st17 st18">C</text>
			<text transform="matrix(0.75 0 0 -0.75 619.0812 189.1619)" class="st20 st17 st18">a</text>
			<text transform="matrix(0.75 0 0 -0.75 625.7529 189.1619)" class="st20 st17 st18">t</text>
			<text transform="matrix(0.75 0 0 -0.75 629.0891 189.1619)" class="st20 st17 st18">a</text>
			<text transform="matrix(0.75 0 0 -0.75 635.7607 189.1619)" class="st20 st17 st18">l</text>
			<text transform="matrix(0.75 0 0 -0.75 638.4245 189.1619)" class="st20 st17 st18">y</text>
			<text transform="matrix(0.75 0 0 -0.75 644.4245 189.1619)" class="st20 st17 st18">s</text>
			<text transform="matrix(0.75 0 0 -0.75 650.4238 189.1619)" class="st20 st17 st18">i</text>
			<text transform="matrix(0.75 0 0 -0.75 653.0876 189.1619)" class="st20 st17 st18">s</text>
			<text transform="matrix(0.75 0 0 -0.75 769.1523 121.1327)" class="st20 st17 st18">L</text>
			<text transform="matrix(0.75 0 0 -0.75 775.8239 121.1327)" class="st20 st17 st18">o</text>
			<text transform="matrix(0.75 0 0 -0.75 782.4955 121.1327)" class="st20 st17 st18">c</text>
			<text transform="matrix(0.75 0 0 -0.75 788.4955 121.1327)" class="st20 st17 st18">a</text>
			<text transform="matrix(0.75 0 0 -0.75 795.1672 121.1327)" class="st20 st17 st18">l</text>
			<text transform="matrix(0.75 0 0 -0.75 797.831 121.1327)" class="st20 st17 st18">i</text>
			<text transform="matrix(0.75 0 0 -0.75 800.4948 121.1327)" class="st20 st17 st18">s</text>
			<text transform="matrix(0.75 0 0 -0.75 806.4948 121.1327)" class="st20 st17 st18">a</text>
			<text transform="matrix(0.75 0 0 -0.75 813.1672 121.1327)" class="st20 st17 st18">t</text>
			<text transform="matrix(0.75 0 0 -0.75 816.5026 121.1327)" class="st20 st17 st18">i</text>
			<text transform="matrix(0.75 0 0 -0.75 819.1664 121.1327)" class="st20 st17 st18">o</text>
			<text transform="matrix(0.75 0 0 -0.75 825.8381 121.1327)" class="st20 st17 st18">n</text>
			<text transform="matrix(0.75 0 0 -0.75 587.7408 61.607)" class="st20 st17 st18">S</text>
			<text transform="matrix(0.75 0 0 -0.75 595.7448 61.607)" class="st20 st17 st18">u</text>
			<text transform="matrix(0.75 0 0 -0.75 602.4171 61.607)" class="st20 st17 st18">b</text>
			<text transform="matrix(0.75 0 0 -0.75 609.0887 61.607)" class="st20 st17 st18">u</text>
			<text transform="matrix(0.75 0 0 -0.75 615.7604 61.607)" class="st20 st17 st18">n</text>
			<text transform="matrix(0.75 0 0 -0.75 622.4321 61.607)" class="st20 st17 st18">i</text>
			<text transform="matrix(0.75 0 0 -0.75 625.0959 61.607)" class="st20 st17 st18">t</text>
			<text transform="matrix(0.75 0 0 -0.75 628.4321 61.607)" class="st20 st17 st18">s</text>
		</g>
		<g id="g230" transform="scale(10)">
			<text transform="matrix(0.75 0 0 -0.75 244.7608 226.0112)" class="st17 st18">R</text>
			<text transform="matrix(0.75 0 0 -0.75 253.4246 226.0112)" class="st17 st18">e</text>
			<text transform="matrix(0.75 0 0 -0.75 260.0963 226.0112)" class="st17 st18">a</text>
			<text transform="matrix(0.75 0 0 -0.75 266.7686 226.0112)" class="st17 st18">c</text>
			<text transform="matrix(0.75 0 0 -0.75 272.7686 226.0112)" class="st17 st18">t</text>
			<text transform="matrix(0.75 0 0 -0.75 276.1041 226.0112)" class="st17 st18">i</text>
			<text transform="matrix(0.75 0 0 -0.75 278.7679 226.0112)" class="st17 st18">o</text>
			<text transform="matrix(0.75 0 0 -0.75 285.4395 226.0112)" class="st17 st18">n</text>
			<text transform="matrix(0.75 0 0 -0.75 292.1119 226.0112)" class="st17 st18">s</text>
			<text transform="matrix(0.75 0 0 -0.75 587.7408 228.846)" class="st17 st18">P</text>
			<text transform="matrix(0.75 0 0 -0.75 595.7448 228.846)" class="st17 st18">r</text>
			<text transform="matrix(0.75 0 0 -0.75 599.7408 228.846)" class="st17 st18">o</text>
			<text transform="matrix(0.75 0 0 -0.75 606.4125 228.846)" class="st17 st18">c</text>
			<text transform="matrix(0.75 0 0 -0.75 612.4125 228.846)" class="st17 st18">e</text>
			<text transform="matrix(0.75 0 0 -0.75 619.0842 228.846)" class="st17 st18">s</text>
			<text transform="matrix(0.75 0 0 -0.75 625.0842 228.846)" class="st17 st18">s</text>
			<text transform="matrix(0.75 0 0 -0.75 631.0842 228.846)" class="st17 st18">e</text>
			<text transform="matrix(0.75 0 0 -0.75 637.7558 228.846)" class="st17 st18">s</text>
			<text transform="matrix(0.75 0 0 -0.75 417.6681 260.026)" class="st17 st18">M</text>
			<text transform="matrix(0.75 0 0 -0.75 427.6642 260.026)" class="st17 st18">e</text>
			<text transform="matrix(0.75 0 0 -0.75 434.3358 260.026)" class="st17 st18">t</text>
			<text transform="matrix(0.75 0 0 -0.75 437.6713 260.026)" class="st17 st18">a</text>
			<text transform="matrix(0.75 0 0 -0.75 444.3436 260.026)" class="st17 st18">b</text>
			<text transform="matrix(0.75 0 0 -0.75 451.0153 260.026)" class="st17 st18">o</text>
			<text transform="matrix(0.75 0 0 -0.75 457.6869 260.026)" class="st17 st18">l</text>
			<text transform="matrix(0.75 0 0 -0.75 460.3507 260.026)" class="st17 st18">i</text>
			<text transform="matrix(0.75 0 0 -0.75 463.0145 260.026)" class="st17 st18">t</text>
			<text transform="matrix(0.75 0 0 -0.75 466.3507 260.026)" class="st17 st18">e</text>
			<text transform="matrix(0.75 0 0 -0.75 473.0223 260.026)" class="st17 st18">s</text>
			<text transform="matrix(0.75 0 0 -0.75 420.5025 248.6881)" class="st17 st18">(</text>
			<text transform="matrix(0.75 0 0 -0.75 424.4986 248.6881)" class="st17 st18">b</text>
			<text transform="matrix(0.75 0 0 -0.75 431.1703 248.6881)" class="st17 st18">i</text>
			<text transform="matrix(0.75 0 0 -0.75 433.8341 248.6881)" class="st17 st18">o</text>
			<text transform="matrix(0.75 0 0 -0.75 440.5057 248.6881)" class="st17 st18">m</text>
			<text transform="matrix(0.75 0 0 -0.75 450.5018 248.6881)" class="st17 st18">a</text>
			<text transform="matrix(0.75 0 0 -0.75 457.1735 248.6881)" class="st17 st18">s</text>
			<text transform="matrix(0.75 0 0 -0.75 463.1735 248.6881)" class="st17 st18">s</text>
			<text transform="matrix(0.75 0 0 -0.75 420.5025 237.3494)" class="st17 st18">p</text>
			<text transform="matrix(0.75 0 0 -0.75 427.1742 237.3494)" class="st17 st18">r</text>
			<text transform="matrix(0.75 0 0 -0.75 431.1703 237.3494)" class="st17 st18">e</text>
			<text transform="matrix(0.75 0 0 -0.75 437.8419 237.3494)" class="st17 st18">c</text>
			<text transform="matrix(0.75 0 0 -0.75 443.8419 237.3494)" class="st17 st18">u</text>
			<text transform="matrix(0.75 0 0 -0.75 450.5135 237.3494)" class="st17 st18">r</text>
			<text transform="matrix(0.75 0 0 -0.75 454.5096 237.3494)" class="st17 st18">s</text>
			<text transform="matrix(0.75 0 0 -0.75 460.5089 237.3494)" class="st17 st18">o</text>
			<text transform="matrix(0.75 0 0 -0.75 467.1813 237.3494)" class="st17 st18">r</text>
			<text transform="matrix(0.75 0 0 -0.75 471.1766 237.3494)" class="st17 st18">s</text>
			<text transform="matrix(0.75 0 0 -0.75 477.1766 237.3494)" class="st17 st18">)</text>
		</g>
	</g>
</g>
</svg>
